<svg width="28" height="28" viewBox="0 0 28 28" fill="none" xmlns="http://www.w3.org/2000/svg">
<path d="M9.23872 16.2911C6.6216 16.2911 4.5 14.1583 4.5 11.5274C4.5 6.35895 8.90308 2 14.0226 2C19.1974 2 23.5 6.3275 23.5 11.5274H23.4995C23.4876 11.8552 23.2197 12.1172 22.8907 12.1172C22.5618 12.1172 22.2938 11.8552 22.282 11.5274H22.2812C22.3054 9.23555 20.41 7.30813 18.1295 7.30813C15.8489 7.30813 14.4287 9.14556 13.9777 11.5274C13.4494 14.3176 11.8558 16.2911 9.23872 16.2911Z" fill="#FF2056"/>
<path d="M13.9774 26C8.80261 26 4.5 21.6725 4.5 16.4726H4.50049C4.51236 16.1448 4.78033 15.8828 5.10926 15.8828C5.4382 15.8828 5.70617 16.1448 5.71804 16.4726H5.71884C5.69456 18.7644 7.59002 20.6919 9.87055 20.6919C12.1511 20.6919 13.5713 18.8544 14.0223 16.4726C14.5506 13.6824 16.1442 11.7089 18.7613 11.7089C21.3784 11.7089 23.5 13.8417 23.5 16.4726C23.5 21.641 19.0969 26 13.9774 26Z" fill="#FF2056"/>
</svg>
