<svg width="130" height="28" viewBox="0 0 130 28" fill="none" xmlns="http://www.w3.org/2000/svg">
<path d="M7.05317 16.2911C4.43605 16.2911 2.31445 14.1583 2.31445 11.5274C2.31445 6.35895 6.71753 2 11.837 2C17.0118 2 21.3145 6.3275 21.3145 11.5274H21.314C21.3021 11.8552 21.0341 12.1172 20.7052 12.1172C20.3763 12.1172 20.1083 11.8552 20.0964 11.5274H20.0956C20.1199 9.23555 18.2244 7.30813 15.9439 7.30813C13.6634 7.30813 12.2432 9.14556 11.7922 11.5274C11.2639 14.3176 9.67029 16.2911 7.05317 16.2911Z" fill="#FF2056"/>
<path d="M11.7919 26C6.61707 26 2.31445 21.6725 2.31445 16.4726H2.31494C2.32681 16.1448 2.59479 15.8828 2.92372 15.8828C3.25265 15.8828 3.52062 16.1448 3.5325 16.4726H3.53329C3.50901 18.7644 5.40448 20.6919 7.685 20.6919C9.96552 20.6919 11.3857 18.8544 11.8367 16.4726C12.365 13.6824 13.9586 11.7089 16.5757 11.7089C19.1929 11.7089 21.3145 13.8417 21.3145 16.4726C21.3145 21.641 16.9114 26 11.7919 26Z" fill="#FF2056"/>
<path d="M36.5225 4.20796C37.4185 4.20796 38.1065 4.30396 38.5865 4.49596C39.0665 4.68796 39.4825 4.89596 39.8345 5.11996C40.0265 5.23196 40.1785 5.31996 40.2905 5.38396C40.4185 5.43196 40.5385 5.45596 40.6505 5.45596C40.8105 5.45596 40.9225 5.36796 40.9865 5.19196C41.0665 5.01596 41.1305 4.75196 41.1785 4.39996H41.7305C41.7145 4.70396 41.6905 5.05596 41.6585 5.45596C41.6425 5.85596 41.6265 6.39196 41.6105 7.06396C41.6105 7.71996 41.6105 8.59196 41.6105 9.67996H41.0585C41.0105 8.86396 40.8265 8.07996 40.5065 7.32796C40.2025 6.57596 39.7625 5.95996 39.1865 5.47996C38.6265 4.98396 37.9065 4.73596 37.0265 4.73596C36.2425 4.73596 35.5865 4.96796 35.0585 5.43196C34.5465 5.89596 34.2905 6.51996 34.2905 7.30396C34.2905 7.97596 34.4585 8.54396 34.7945 9.00796C35.1305 9.45596 35.6025 9.89596 36.2105 10.328C36.8345 10.744 37.5705 11.224 38.4185 11.768C39.2025 12.28 39.9065 12.792 40.5305 13.304C41.1545 13.8 41.6425 14.352 41.9945 14.96C42.3625 15.568 42.5465 16.312 42.5465 17.192C42.5465 18.232 42.2905 19.096 41.7785 19.784C41.2665 20.472 40.5785 20.984 39.7145 21.32C38.8505 21.656 37.9065 21.824 36.8825 21.824C35.9385 21.824 35.1865 21.728 34.6265 21.536C34.0825 21.344 33.6105 21.144 33.2105 20.936C32.8585 20.712 32.5865 20.6 32.3945 20.6C32.2345 20.6 32.1145 20.688 32.0345 20.864C31.9705 21.04 31.9145 21.304 31.8665 21.656H31.3145C31.3465 21.288 31.3625 20.856 31.3625 20.36C31.3785 19.864 31.3865 19.224 31.3865 18.44C31.4025 17.64 31.4105 16.632 31.4105 15.416H31.9625C32.0265 16.44 32.2025 17.4 32.4905 18.296C32.7945 19.176 33.2505 19.888 33.8585 20.432C34.4825 20.976 35.3065 21.248 36.3305 21.248C36.8905 21.248 37.3945 21.152 37.8425 20.96C38.3065 20.752 38.6745 20.44 38.9465 20.024C39.2185 19.592 39.3545 19.048 39.3545 18.392C39.3545 17.736 39.2025 17.16 38.8985 16.664C38.5945 16.168 38.1705 15.704 37.6265 15.272C37.0825 14.84 36.4425 14.4 35.7065 13.952C34.9545 13.472 34.2505 12.984 33.5945 12.488C32.9385 11.992 32.4105 11.432 32.0105 10.808C31.6265 10.168 31.4345 9.39996 31.4345 8.50396C31.4345 7.51196 31.6745 6.70396 32.1545 6.07996C32.6345 5.43996 33.2585 4.96796 34.0265 4.66396C34.8105 4.35996 35.6425 4.20796 36.5225 4.20796Z" fill="#FF2056"/>
<path d="M48.7705 5.14396V9.10396H51.8425V9.58396H48.7705V19.136C48.7705 19.712 48.8745 20.12 49.0825 20.36C49.2905 20.6 49.5865 20.72 49.9705 20.72C50.3385 20.72 50.6745 20.584 50.9785 20.312C51.2825 20.024 51.5545 19.552 51.7945 18.896L52.2265 19.088C51.9865 19.872 51.6105 20.528 51.0985 21.056C50.6025 21.568 49.8985 21.824 48.9865 21.824C48.4425 21.824 47.9785 21.752 47.5945 21.608C47.2265 21.48 46.9065 21.288 46.6345 21.032C46.2825 20.664 46.0425 20.224 45.9145 19.712C45.8025 19.2 45.7465 18.52 45.7465 17.672V9.58396H43.6345V9.10396H45.7465V5.76796C46.3225 5.75196 46.8585 5.69596 47.3545 5.59996C47.8505 5.50396 48.3225 5.35196 48.7705 5.14396Z" fill="#FF2056"/>
<path d="M56.008 21.656C55.32 21.656 54.736 21.528 54.256 21.272C53.776 21 53.416 20.64 53.176 20.192C52.936 19.728 52.816 19.216 52.816 18.656C52.816 17.968 52.976 17.408 53.296 16.976C53.616 16.528 54.024 16.176 54.52 15.92C55.032 15.648 55.568 15.424 56.128 15.248C56.688 15.056 57.216 14.88 57.712 14.72C58.208 14.544 58.616 14.344 58.936 14.12C59.256 13.896 59.416 13.6 59.416 13.232V11.48C59.416 10.968 59.336 10.552 59.176 10.232C59.032 9.89596 58.808 9.64796 58.504 9.48796C58.216 9.31196 57.848 9.22396 57.4 9.22396C57.064 9.22396 56.712 9.27196 56.344 9.36796C55.976 9.46396 55.672 9.64796 55.432 9.91996C55.848 10.032 56.168 10.24 56.392 10.544C56.632 10.848 56.752 11.216 56.752 11.648C56.752 12.144 56.584 12.536 56.248 12.824C55.928 13.096 55.52 13.232 55.024 13.232C54.496 13.232 54.096 13.064 53.824 12.728C53.552 12.392 53.416 12 53.416 11.552C53.416 11.104 53.528 10.736 53.752 10.448C53.976 10.144 54.288 9.87196 54.688 9.63196C55.088 9.35996 55.6 9.14396 56.224 8.98396C56.848 8.82396 57.528 8.74396 58.264 8.74396C58.968 8.74396 59.592 8.82396 60.136 8.98396C60.68 9.12796 61.144 9.39196 61.528 9.77596C61.912 10.144 62.16 10.6 62.272 11.144C62.384 11.688 62.44 12.352 62.44 13.136V19.712C62.44 20.112 62.488 20.4 62.584 20.576C62.68 20.736 62.832 20.816 63.04 20.816C63.2 20.816 63.352 20.776 63.496 20.696C63.64 20.616 63.8 20.504 63.976 20.36L64.24 20.768C63.888 21.04 63.52 21.256 63.136 21.416C62.752 21.576 62.288 21.656 61.744 21.656C61.184 21.656 60.736 21.576 60.4 21.416C60.08 21.256 59.84 21.024 59.68 20.72C59.536 20.416 59.456 20.056 59.44 19.64C59.056 20.28 58.584 20.776 58.024 21.128C57.464 21.48 56.792 21.656 56.008 21.656ZM57.448 20.312C57.832 20.312 58.184 20.208 58.504 20C58.84 19.792 59.144 19.48 59.416 19.064V14.216C59.256 14.456 59.024 14.672 58.72 14.864C58.432 15.056 58.12 15.248 57.784 15.44C57.448 15.632 57.128 15.856 56.824 16.112C56.536 16.352 56.288 16.656 56.08 17.024C55.888 17.376 55.792 17.832 55.792 18.392C55.792 19.016 55.944 19.496 56.248 19.832C56.552 20.152 56.952 20.312 57.448 20.312Z" fill="#FF2056"/>
<path d="M76.2623 9.07996V9.58396C75.9583 9.64796 75.6703 9.81596 75.3983 10.088C75.1423 10.36 74.8943 10.84 74.6543 11.528L71.1023 21.272L70.3583 22.4L65.4143 10.928C65.1103 10.32 64.8223 9.94396 64.5503 9.79996C64.2783 9.65596 64.0543 9.58396 63.8783 9.58396V9.07996C64.3423 9.12796 64.8223 9.16796 65.3183 9.19996C65.8303 9.21596 66.3423 9.22396 66.8543 9.22396C67.4463 9.22396 68.0143 9.20796 68.5583 9.17596C69.1183 9.14396 69.6383 9.11196 70.1183 9.07996V9.58396C69.7503 9.58396 69.4223 9.60796 69.1343 9.65596C68.8463 9.70396 68.6543 9.83996 68.5583 10.064C68.4783 10.272 68.5423 10.64 68.7503 11.168L71.7503 18.488L71.5583 18.584L73.6703 12.872C73.9423 12.12 74.0543 11.512 74.0063 11.048C73.9583 10.584 73.7823 10.232 73.4783 9.99196C73.1743 9.75196 72.7583 9.61596 72.2303 9.58396V9.07996C72.4863 9.09596 72.7423 9.11196 72.9983 9.12796C73.2543 9.14396 73.5023 9.15996 73.7423 9.17596C73.9823 9.17596 74.2143 9.17596 74.4383 9.17596C74.7743 9.17596 75.1023 9.16796 75.4223 9.15196C75.7583 9.13596 76.0383 9.11196 76.2623 9.07996ZM71.1023 21.272L70.1903 23.696C70.0463 24.096 69.8863 24.432 69.7103 24.704C69.5503 24.992 69.3663 25.224 69.1583 25.4C68.9183 25.608 68.6223 25.76 68.2703 25.856C67.9343 25.952 67.5583 26 67.1423 26C66.7743 26 66.4143 25.936 66.0623 25.808C65.7263 25.68 65.4383 25.488 65.1983 25.232C64.9743 24.976 64.8623 24.64 64.8623 24.224C64.8623 23.776 65.0143 23.416 65.3183 23.144C65.6223 22.872 66.0383 22.736 66.5663 22.736C67.0303 22.736 67.4063 22.848 67.6943 23.072C67.9983 23.312 68.1503 23.664 68.1503 24.128C68.1503 24.432 68.0623 24.704 67.8863 24.944C67.7103 25.184 67.4623 25.368 67.1423 25.496C67.2223 25.512 67.2943 25.52 67.3583 25.52C67.4383 25.536 67.5023 25.544 67.5503 25.544C68.0143 25.544 68.4303 25.392 68.7983 25.088C69.1663 24.784 69.4623 24.304 69.6863 23.648L70.5503 21.272H71.1023Z" fill="#FF2056"/>
<path d="M98.872 4.49596V4.97596C98.552 5.08796 98.2 5.33596 97.816 5.71996C97.432 6.10396 97.112 6.71996 96.856 7.56796L92.512 21.56C92.416 21.56 92.312 21.552 92.2 21.536C92.104 21.536 92 21.536 91.888 21.536C91.792 21.536 91.688 21.536 91.576 21.536C91.48 21.552 91.384 21.56 91.288 21.56L86.2 6.34396C86.024 5.79996 85.816 5.43996 85.576 5.26396C85.352 5.08796 85.12 4.99196 84.88 4.97596V4.49596C85.264 4.51196 85.728 4.52796 86.272 4.54396C86.832 4.55996 87.384 4.56796 87.928 4.56796C88.6 4.56796 89.232 4.55996 89.824 4.54396C90.416 4.52796 90.896 4.51196 91.264 4.49596V4.97596C90.768 4.99196 90.384 5.04796 90.112 5.14396C89.84 5.22396 89.68 5.40796 89.632 5.69596C89.6 5.96796 89.68 6.39996 89.872 6.99196L93.328 17.624L92.848 18.392L95.728 9.29596C96.08 8.20796 96.24 7.35196 96.208 6.72796C96.192 6.10396 96.008 5.66396 95.656 5.40796C95.304 5.13596 94.8 4.99196 94.144 4.97596V4.49596C94.672 4.51196 95.168 4.52796 95.632 4.54396C96.112 4.55996 96.592 4.56796 97.072 4.56796C97.44 4.56796 97.768 4.55996 98.056 4.54396C98.36 4.52796 98.632 4.51196 98.872 4.49596ZM81.88 4.49596V4.97596C81.512 5.00796 81.256 5.11196 81.112 5.28796C80.968 5.46396 80.904 5.69596 80.92 5.98396C80.952 6.25596 81.032 6.59196 81.16 6.99196L84.832 17.888L84.208 18.656L87.376 9.10396L87.736 9.72796L83.872 21.56C83.776 21.56 83.672 21.552 83.56 21.536C83.464 21.536 83.36 21.536 83.248 21.536C83.152 21.536 83.048 21.536 82.936 21.536C82.84 21.552 82.744 21.56 82.648 21.56L77.368 6.51196C77.16 5.91996 76.904 5.51996 76.6 5.31196C76.312 5.10396 76.048 4.99196 75.808 4.97596V4.49596C76.224 4.51196 76.728 4.52796 77.32 4.54396C77.912 4.55996 78.488 4.56796 79.048 4.56796C79.64 4.56796 80.184 4.55996 80.68 4.54396C81.176 4.52796 81.576 4.51196 81.88 4.49596Z" fill="#FF2056"/>
<path d="M101.75 2.95996C102.326 2.95996 102.798 3.11996 103.166 3.43996C103.534 3.75996 103.718 4.18396 103.718 4.71196C103.718 5.23996 103.534 5.66396 103.166 5.98396C102.798 6.30396 102.326 6.46396 101.75 6.46396C101.174 6.46396 100.702 6.30396 100.334 5.98396C99.9656 5.66396 99.7816 5.23996 99.7816 4.71196C99.7816 4.18396 99.9656 3.75996 100.334 3.43996C100.702 3.11996 101.174 2.95996 101.75 2.95996ZM103.43 8.81596V19.256C103.43 19.928 103.55 20.384 103.79 20.624C104.046 20.864 104.47 20.984 105.062 20.984V21.488C104.774 21.472 104.334 21.456 103.742 21.44C103.15 21.408 102.55 21.392 101.942 21.392C101.35 21.392 100.75 21.408 100.142 21.44C99.5336 21.456 99.0776 21.472 98.7736 21.488V20.984C99.3656 20.984 99.7816 20.864 100.022 20.624C100.278 20.384 100.406 19.928 100.406 19.256V11.72C100.406 10.984 100.286 10.448 100.046 10.112C99.8216 9.75996 99.3976 9.58396 98.7736 9.58396V9.07996C99.2856 9.12796 99.7816 9.15196 100.262 9.15196C100.854 9.15196 101.414 9.12796 101.942 9.07996C102.486 9.01596 102.982 8.92796 103.43 8.81596Z" fill="#FF2056"/>
<path d="M110.74 8.74396C111.412 8.74396 111.988 8.83996 112.468 9.03196C112.948 9.22396 113.3 9.39196 113.524 9.53596C114.068 9.93596 114.396 9.67996 114.508 8.76796H115.036C115.004 9.23196 114.98 9.78396 114.964 10.424C114.948 11.048 114.94 11.888 114.94 12.944H114.412C114.332 12.352 114.18 11.776 113.956 11.216C113.732 10.656 113.404 10.192 112.972 9.82396C112.54 9.43996 111.972 9.24796 111.268 9.24796C110.772 9.24796 110.356 9.39196 110.02 9.67996C109.7 9.96796 109.54 10.376 109.54 10.904C109.54 11.384 109.684 11.808 109.972 12.176C110.26 12.528 110.628 12.864 111.076 13.184C111.54 13.488 112.02 13.824 112.516 14.192C113.092 14.576 113.604 14.968 114.052 15.368C114.5 15.752 114.86 16.184 115.132 16.664C115.404 17.128 115.54 17.68 115.54 18.32C115.54 19.056 115.332 19.688 114.916 20.216C114.516 20.728 113.98 21.128 113.308 21.416C112.652 21.688 111.924 21.824 111.124 21.824C110.692 21.824 110.3 21.784 109.948 21.704C109.596 21.624 109.284 21.52 109.012 21.392C108.804 21.28 108.612 21.176 108.436 21.08C108.276 20.984 108.108 20.904 107.932 20.84C107.772 20.76 107.628 20.792 107.5 20.936C107.388 21.08 107.3 21.32 107.236 21.656H106.708C106.74 21.144 106.764 20.52 106.78 19.784C106.796 19.048 106.804 18.072 106.804 16.856H107.332C107.444 17.736 107.612 18.512 107.836 19.184C108.076 19.84 108.42 20.36 108.868 20.744C109.316 21.112 109.892 21.296 110.596 21.296C110.9 21.296 111.188 21.232 111.46 21.104C111.748 20.976 111.98 20.776 112.156 20.504C112.348 20.232 112.444 19.864 112.444 19.4C112.444 18.696 112.204 18.112 111.724 17.648C111.244 17.184 110.644 16.688 109.924 16.16C109.38 15.76 108.868 15.368 108.388 14.984C107.924 14.6 107.54 14.168 107.236 13.688C106.948 13.208 106.804 12.64 106.804 11.984C106.804 11.264 106.988 10.672 107.356 10.208C107.724 9.72796 108.204 9.36796 108.796 9.12796C109.404 8.87196 110.052 8.74396 110.74 8.74396Z" fill="#FF2056"/>
<path d="M123.173 8.74396C124.581 8.74396 125.685 9.16796 126.485 10.016C127.285 10.864 127.685 12.216 127.685 14.072H119.597L119.573 13.616H124.901C124.933 12.832 124.885 12.112 124.757 11.456C124.629 10.784 124.421 10.248 124.133 9.84796C123.861 9.44796 123.501 9.24796 123.053 9.24796C122.445 9.24796 121.917 9.60796 121.469 10.328C121.021 11.032 120.741 12.192 120.629 13.808L120.725 13.952C120.693 14.16 120.669 14.384 120.653 14.624C120.653 14.864 120.653 15.104 120.653 15.344C120.653 16.448 120.813 17.36 121.133 18.08C121.453 18.8 121.869 19.328 122.381 19.664C122.893 20 123.421 20.168 123.965 20.168C124.333 20.168 124.709 20.112 125.093 20C125.477 19.888 125.853 19.68 126.221 19.376C126.589 19.072 126.925 18.64 127.229 18.08L127.685 18.272C127.509 18.832 127.213 19.392 126.797 19.952C126.397 20.496 125.877 20.944 125.237 21.296C124.597 21.648 123.845 21.824 122.981 21.824C121.893 21.824 120.933 21.584 120.101 21.104C119.269 20.624 118.621 19.912 118.157 18.968C117.693 18.008 117.461 16.84 117.461 15.464C117.461 14.008 117.701 12.784 118.181 11.792C118.677 10.8 119.357 10.048 120.221 9.53596C121.085 9.00796 122.069 8.74396 123.173 8.74396Z" fill="#FF2056"/>
</svg>
